<svg width="14" height="15" viewBox="0 0 14 15" fill="none" xmlns="http://www.w3.org/2000/svg">
<path d="M5.83314 13.9167C5.83314 14.0714 5.77169 14.2197 5.66229 14.3291C5.5529 14.4385 5.40453 14.5 5.24983 14.5H1.16663C0.857219 14.5 0.560483 14.3771 0.341698 14.1583C0.122912 13.9395 0 13.6428 0 13.3333V1.66667C0 1.35725 0.122912 1.0605 0.341698 0.841709C0.560483 0.622916 0.857219 0.5 1.16663 0.5H5.24983C5.40453 0.5 5.5529 0.561458 5.66229 0.670854C5.77169 0.780251 5.83314 0.928624 5.83314 1.08333C5.83314 1.23804 5.77169 1.38642 5.66229 1.49581C5.5529 1.60521 5.40453 1.66667 5.24983 1.66667H1.16663V13.3333H5.24983C5.40453 13.3333 5.5529 13.3948 5.66229 13.5042C5.77169 13.6136 5.83314 13.762 5.83314 13.9167ZM13.8289 7.08729L10.9124 4.17062C10.8029 4.06117 10.6544 3.99968 10.4997 3.99968C10.3449 3.99968 10.1964 4.06117 10.087 4.17062C9.97751 4.28008 9.91602 4.42854 9.91602 4.58333C9.91602 4.73813 9.97751 4.88658 10.087 4.99604L12.0083 6.91667H5.24983C5.09512 6.91667 4.94676 6.97812 4.83736 7.08752C4.72797 7.19692 4.66651 7.34529 4.66651 7.5C4.66651 7.65471 4.72797 7.80308 4.83736 7.91248C4.94676 8.02188 5.09512 8.08333 5.24983 8.08333H12.0083L10.087 10.004C9.97751 10.1134 9.91602 10.2619 9.91602 10.4167C9.91602 10.5715 9.97751 10.7199 10.087 10.8294C10.1964 10.9388 10.3449 11.0003 10.4997 11.0003C10.6544 11.0003 10.8029 10.9388 10.9124 10.8294L13.8289 7.91271C13.8832 7.85853 13.9262 7.7942 13.9555 7.72338C13.9849 7.65257 14 7.57666 14 7.5C14 7.42334 13.9849 7.34743 13.9555 7.27662C13.9262 7.2058 13.8832 7.14147 13.8289 7.08729Z" fill="black"/>
</svg>
