<svg width="14" height="15" viewBox="0 0 14 15" fill="none" xmlns="http://www.w3.org/2000/svg">
<path d="M7 0.5C5.61553 0.5 4.26216 0.910543 3.11101 1.67971C1.95987 2.44888 1.06266 3.54213 0.532846 4.82122C0.00303299 6.1003 -0.13559 7.50776 0.134506 8.86563C0.404603 10.2235 1.07129 11.4708 2.05026 12.4497C3.02922 13.4287 4.2765 14.0954 5.63437 14.3655C6.99224 14.6356 8.3997 14.497 9.67879 13.9672C10.9579 13.4373 12.0511 12.5401 12.8203 11.389C13.5895 10.2378 14 8.88447 14 7.5C13.998 5.64409 13.2599 3.86475 11.9476 2.55242C10.6353 1.24009 8.85592 0.50196 7 0.5ZM3.37077 12.1779C3.7603 11.5687 4.29693 11.0673 4.93118 10.72C5.56543 10.3728 6.2769 10.1907 7 10.1907C7.7231 10.1907 8.43457 10.3728 9.06882 10.72C9.70307 11.0673 10.2397 11.5687 10.6292 12.1779C9.59157 12.9849 8.31454 13.423 7 13.423C5.68547 13.423 4.40843 12.9849 3.37077 12.1779ZM4.84616 6.96154C4.84616 6.53555 4.97248 6.11912 5.20914 5.76493C5.44581 5.41073 5.7822 5.13466 6.17576 4.97164C6.56932 4.80862 7.00239 4.76597 7.4202 4.84908C7.838 4.93218 8.22178 5.13732 8.523 5.43854C8.82422 5.73976 9.02936 6.12354 9.11246 6.54134C9.19557 6.95915 9.15292 7.39221 8.9899 7.78578C8.82688 8.17934 8.55081 8.51573 8.19661 8.75239C7.84242 8.98906 7.42599 9.11538 7 9.11538C6.42877 9.11538 5.88093 8.88846 5.477 8.48454C5.07308 8.08061 4.84616 7.53277 4.84616 6.96154ZM11.4262 11.4314C10.8256 10.5612 9.98118 9.88795 8.99904 9.49634C9.52661 9.08082 9.91158 8.51122 10.1004 7.86676C10.2893 7.22229 10.2726 6.535 10.0527 5.90046C9.8328 5.26592 9.42064 4.71567 8.87354 4.32623C8.32643 3.93679 7.67156 3.72752 7 3.72752C6.32844 3.72752 5.67358 3.93679 5.12647 4.32623C4.57936 4.71567 4.1672 5.26592 3.94732 5.90046C3.72744 6.535 3.71075 7.22229 3.89959 7.86676C4.08843 8.51122 4.4734 9.08082 5.00096 9.49634C4.01882 9.88795 3.17439 10.5612 2.57385 11.4314C1.815 10.5781 1.31901 9.52357 1.14561 8.39486C0.972208 7.26614 1.12878 6.11137 1.59649 5.06958C2.06419 4.0278 2.82307 3.14343 3.78176 2.52296C4.74044 1.90249 5.85805 1.57238 7 1.57238C8.14196 1.57238 9.25956 1.90249 10.2182 2.52296C11.1769 3.14343 11.9358 4.0278 12.4035 5.06958C12.8712 6.11137 13.0278 7.26614 12.8544 8.39486C12.681 9.52357 12.185 10.5781 11.4262 11.4314Z" fill="black"/>
</svg>
